<?xml version="1.0" encoding="utf-8"?>
<!-- Generator: Adobe Illustrator 21.1.0, SVG Export Plug-In . SVG Version: 6.00 Build 0)  -->
<svg version="1.1" id="Слой_1" xmlns="http://www.w3.org/2000/svg" xmlns:xlink="http://www.w3.org/1999/xlink" x="0px" y="0px"
	 width="61.3px" height="76.3px" viewBox="0 0 61.3 76.3" style="enable-background:new 0 0 61.3 76.3;" xml:space="preserve">
<style type="text/css">
	.st0{fill:#231F20;}
	.st1{fill:none;stroke:#231F20;stroke-width:5;stroke-linecap:round;stroke-linejoin:round;stroke-miterlimit:10;}
</style>
<g id="Layer_2">
</g>
<g id="Layer_1">
	<g>
		<g>
			<path class="st0" d="M54,66H7.3c-3.3,0-5-1.5-5.9-2.8c-1.8-2.6-1.5-6.2-0.7-8.6c1.8-5.1,4.4-7.5,6.2-9.2c1.8-1.7,2.7-2.5,2.7-5.4
				V22.5c0-7.2,3.2-12.8,9.2-16.1c5.4-3,11.2-3.1,11.9-3.1s6.4,0.1,11.9,3.1c6,3.4,9.2,8.9,9.2,16.1v17.6c0,2.9,0.9,3.7,2.7,5.4
				c1.9,1.7,4.4,4.1,6.2,9.2c0.8,2.3,1.1,6-0.7,8.6C59.1,64.5,57.3,66,54,66z M30.7,8.2c-0.2,0-16,0.2-16,14.2v17.6
				c0,5.1-2.2,7.1-4.4,9.1c-1.7,1.6-3.5,3.2-4.9,7.2c-0.5,1.3-0.6,3.2,0.1,4C5.5,60.6,5.9,61,7.3,61H54c1.4,0,1.7-0.5,1.8-0.7
				c0.6-0.9,0.5-2.7,0.1-4c-1.4-3.9-3.2-5.6-4.9-7.2c-2.1-2-4.4-4-4.4-9.1V22.5C46.7,8.4,30.8,8.2,30.7,8.2z"/>
		</g>
	</g>
	<g>
		<path class="st1" d="M30.7,63.5"/>
	</g>
	<g>
		<path class="st0" d="M30.7,76.3c-6,0-10.9-4.9-10.9-10.9c0-1.4,1.1-2.5,2.5-2.5s2.5,1.1,2.5,2.5c0,3.3,2.7,5.9,5.9,5.9
			s5.9-2.7,5.9-5.9c0-1.4,1.1-2.5,2.5-2.5s2.5,1.1,2.5,2.5C41.6,71.4,36.7,76.3,30.7,76.3z"/>
	</g>
	<g>
		<path class="st0" d="M25.7,8.6c-0.3,0-0.6-0.1-0.9-0.2c-1.3-0.5-1.9-2-1.4-3.2C24.1,3.3,26.5,0,30.8,0c4.4,0,6.6,3.4,7.1,5.2
			c0.4,1.3-0.3,2.7-1.7,3.1C35,8.7,33.6,8,33.1,6.7C33.1,6.4,32.5,5,30.8,5C28.9,5,28,7,28,7C27.6,8,26.7,8.6,25.7,8.6z"/>
	</g>
</g>
</svg>
