<?xml version="1.0" encoding="UTF-8"?><!DOCTYPE svg PUBLIC "-//W3C//DTD SVG 1.1//EN" "http://www.w3.org/Graphics/SVG/1.1/DTD/svg11.dtd"><svg xmlns="http://www.w3.org/2000/svg"><symbol id="icon-angle-down" viewBox="0 0 137.1 80.4">
    <path d="M68.5 53.7L16.9 2.1C14.2-.6 9.7-.6 7 2.1l-5 5C-.7 9.8-.7 14.3 2 17l61.6 61.4c2.7 2.7 7.2 2.7 9.9 0L135 16.9c2.7-2.7 2.7-7.2 0-9.9l-5-5c-2.7-2.7-7.2-2.7-9.9 0L68.5 53.7z"/>
</symbol><symbol id="icon-angle-left" viewBox="0 0 80.4 137.1">
    <path d="M78.4 16.9c2.7-2.7 2.7-7.2 0-9.9l-5-5c-2.7-2.7-7.2-2.7-9.9 0L2 63.5c-2.7 2.7-2.7 7.2 0 9.9L63.4 135c2.7 2.7 7.2 2.7 9.9 0l5-5c2.7-2.7 2.7-7.2 0-9.9L26.7 68.5l51.7-51.6z"/>
</symbol><symbol id="icon-angle-right" viewBox="0 0 80.4 137.1">
    <path d="M53.7 68.5L2.1 120.1c-2.7 2.7-2.7 7.2 0 9.9l5 5c2.7 2.7 7.2 2.7 9.9 0l61.4-61.6c2.7-2.7 2.7-7.2 0-9.9L16.9 2C14.2-.7 9.7-.7 7 2L2 7c-2.7 2.7-2.7 7.2 0 9.9l51.7 51.6z"/>
</symbol><symbol id="icon-arrow-left" viewBox="0 0 492 492">
    <path d="M464.344 207.418l.768.168H135.888l103.496-103.724c5.068-5.064 7.848-11.924 7.848-19.124 0-7.2-2.78-14.012-7.848-19.088L223.28 49.538c-5.064-5.064-11.812-7.864-19.008-7.864-7.2 0-13.952 2.78-19.016 7.844L7.844 226.914C2.76 231.998-.02 238.77 0 245.974c-.02 7.244 2.76 14.02 7.844 19.096l177.412 177.412c5.064 5.06 11.812 7.844 19.016 7.844 7.196 0 13.944-2.788 19.008-7.844l16.104-16.112c5.068-5.056 7.848-11.808 7.848-19.008 0-7.196-2.78-13.592-7.848-18.652L134.72 284.406h329.992c14.828 0 27.288-12.78 27.288-27.6v-22.788c0-14.82-12.828-26.6-27.656-26.6z"/>
</symbol><symbol id="icon-check" viewBox="0 0 26 20">
    <path d="M.3 11c-.2-.2-.3-.5-.3-.7s.1-.5.3-.7l1.4-1.4c.4-.4 1-.4 1.4 0l.1.1 5.5 5.9c.2.2.5.2.7 0L22.8.3h.1c.4-.4 1-.4 1.4 0l1.4 1.4c.4.4.4 1 0 1.4l-16 16.6c-.2.2-.4.3-.7.3s-.5-.1-.7-.3L.5 11.3.3 11z"/>
</symbol><symbol id="icon-close" viewBox="0 0 21.9 21.9">
    <path d="M14.1 11.3c-.2-.2-.2-.5 0-.7l7.5-7.5c.2-.2.3-.5.3-.7s-.1-.5-.3-.7L20.2.3c-.2-.2-.5-.3-.7-.3-.3 0-.5.1-.7.3l-7.5 7.5c-.2.2-.5.2-.7 0L3.1.3C2.9.1 2.6 0 2.4 0s-.5.1-.7.3L.3 1.7c-.2.2-.3.5-.3.7s.1.5.3.7l7.5 7.5c.2.2.2.5 0 .7L.3 18.8c-.2.2-.3.5-.3.7s.1.5.3.7l1.4 1.4c.2.2.5.3.7.3s.5-.1.7-.3l7.5-7.5c.2-.2.5-.2.7 0l7.5 7.5c.2.2.5.3.7.3s.5-.1.7-.3l1.4-1.4c.2-.2.3-.5.3-.7s-.1-.5-.3-.7l-7.5-7.5z"/>
</symbol><symbol id="icon-edit" viewBox="0 0 432.5 432.5">
    <path d="M0 313.8v118.8h118.8L356.3 195 237.5 76.2 0 313.8zM103.6 396H73v-36.5H36.5v-30.6l26-26 67.1 67.1-26 26zm143.1-271.2c4.2 0 6.3 2.1 6.3 6.3 0 1.9-.7 3.5-2 4.9L96.2 290.7c-1.3 1.3-3 2-4.9 2-4.2 0-6.3-2.1-6.3-6.3 0-1.9.7-3.5 2-4.9l154.7-154.7c1.5-1.4 3.1-2 5-2z"/>
    <path d="M422 77.7l-67.1-66.8C347.7 3.6 339 0 328.9 0c-10.3 0-18.8 3.6-25.7 10.8L255.8 58l118.8 118.8 47.4-47.4c7-7 10.6-15.6 10.6-25.7-.1-10-3.6-18.6-10.6-26z"/>
</symbol><symbol id="icon-filter" viewBox="0 0 971.986 971.986">
    <path d="M370.216 459.3c10.2 11.1 15.8 25.6 15.8 40.6v442c0 26.601 32.1 40.101 51.1 21.4l123.3-141.3c16.5-19.8 25.6-29.601 25.6-49.2V500c0-15 5.7-29.5 15.8-40.601L955.615 75.5c26.5-28.8 6.101-75.5-33.1-75.5h-873c-39.2 0-59.7 46.6-33.1 75.5l353.801 383.8z"/>
</symbol><symbol id="icon-info" viewBox="0 0 20 20">
    <title/>
    <path d="M9 15h2V9H9v6zm1-15C4.5 0 0 4.5 0 10s4.5 10 10 10 10-4.5 10-10S15.5 0 10 0zm0 18c-4.4 0-8-3.6-8-8s3.6-8 8-8 8 3.6 8 8-3.6 8-8 8zM9 7h2V5H9v2z" fill-rule="evenodd"/>
</symbol><symbol id="icon-notification" viewBox="0 0 61.3 76.3">
    <style>
        .st0{fill:#231f20}.st1{fill:none;stroke:#231f20;stroke-width:5;stroke-linecap:round;stroke-linejoin:round;stroke-miterlimit:10}
    </style>
    <g id="Layer_1">
        <path class="st0" d="M54 66H7.3c-3.3 0-5-1.5-5.9-2.8-1.8-2.6-1.5-6.2-.7-8.6 1.8-5.1 4.4-7.5 6.2-9.2 1.8-1.7 2.7-2.5 2.7-5.4V22.5c0-7.2 3.2-12.8 9.2-16.1 5.4-3 11.2-3.1 11.9-3.1s6.4.1 11.9 3.1c6 3.4 9.2 8.9 9.2 16.1v17.6c0 2.9.9 3.7 2.7 5.4 1.9 1.7 4.4 4.1 6.2 9.2.8 2.3 1.1 6-.7 8.6-.9 1.2-2.7 2.7-6 2.7zM30.7 8.2c-.2 0-16 .2-16 14.2V40c0 5.1-2.2 7.1-4.4 9.1-1.7 1.6-3.5 3.2-4.9 7.2-.5 1.3-.6 3.2.1 4 0 .3.4.7 1.8.7H54c1.4 0 1.7-.5 1.8-.7.6-.9.5-2.7.1-4-1.4-3.9-3.2-5.6-4.9-7.2-2.1-2-4.4-4-4.4-9.1V22.5C46.7 8.4 30.8 8.2 30.7 8.2z"/>
        <path class="st0" d="M30.7 76.3c-6 0-10.9-4.9-10.9-10.9 0-1.4 1.1-2.5 2.5-2.5s2.5 1.1 2.5 2.5c0 3.3 2.7 5.9 5.9 5.9s5.9-2.7 5.9-5.9c0-1.4 1.1-2.5 2.5-2.5s2.5 1.1 2.5 2.5c0 6-4.9 10.9-10.9 10.9z"/>
        <path class="st0" d="M25.7 8.6c-.3 0-.6-.1-.9-.2-1.3-.5-1.9-2-1.4-3.2.7-1.9 3.1-5.2 7.4-5.2 4.4 0 6.6 3.4 7.1 5.2.4 1.3-.3 2.7-1.7 3.1-1.2.4-2.6-.3-3.1-1.6 0-.3-.6-1.7-2.3-1.7C28.9 5 28 7 28 7c-.4 1-1.3 1.6-2.3 1.6z"/>
    </g>
</symbol><symbol id="icon-question-option" viewBox="0 0 50 50">
    <style>
        .st0{fill:#374163}
    </style>
    <path class="st0" d="M25 49.9c-13.8 0-25-11.2-25-25C0 11.2 11.2.1 25 .1S50 11.3 50 25 38.8 49.9 25 49.9zm0-45.2C13.8 4.7 4.6 13.8 4.6 25c0 11.2 9.2 20.4 20.4 20.4S45.4 36.3 45.4 25c0-11.2-9.2-20.3-20.4-20.3z"/>
    <path class="st0" d="M29.3 27.8c-.7 0-1.4-.3-1.8-.9-.8-1-.6-2.5.5-3.2 1.1-.8 1.9-2.3 1.9-3.7 0-2.6-2.2-4.8-4.8-4.8s-4.8 2.2-4.8 4.8c0 1.3-1 2.3-2.3 2.3-1.3 0-2.3-1-2.3-2.3 0-5.2 4.2-9.4 9.4-9.4s9.4 4.2 9.4 9.4c0 2.9-1.4 5.7-3.7 7.4-.6.2-1 .4-1.5.4z"/>
    <path class="st0" d="M25 31.9c-1.3 0-2.3-1-2.3-2.3 0-3.3 2.7-4.6 4.2-5.4.4-.2.8-.4 1.1-.6 1-.7 2.5-.5 3.2.5.7 1 .5 2.5-.5 3.2-.5.4-1.1.7-1.7 1-1.5.7-1.6.9-1.6 1.2-.1 1.3-1.1 2.4-2.4 2.4z"/>
    <path class="st0" d="M25 39.5c-1.3 0-2.3-1-2.3-2.3v-1.4c0-1.3 1-2.3 2.3-2.3s2.3 1 2.3 2.3v1.4c0 1.2-1 2.3-2.3 2.3z"/>
</symbol></svg>